<?xml version="1.0" encoding="utf-8"?>
<!-- Generator: Adobe Illustrator 26.3.1, SVG Export Plug-In . SVG Version: 6.00 Build 0)  -->
<svg version="1.1" id="Layer_1" xmlns="http://www.w3.org/2000/svg" xmlns:xlink="http://www.w3.org/1999/xlink" x="0px" y="0px"
	 viewBox="0 0 512 512" style="enable-background:new 0 0 512 512;" xml:space="preserve">
<style type="text/css">
	.st0{fill-rule:evenodd;clip-rule:evenodd;}
</style>
<g>
	<path class="st0" d="M392.4,471.86c-44.67,0-73.55-21.3-87.63-49.15l39.17-22.69c10.32,16.85,23.71,29.21,47.44,29.21
		c19.92,0,32.64-9.96,32.64-23.71c0-20.67-27.6-28.77-47.08-37.11c-34.71-14.77-57.75-33.34-57.75-72.52
		c0-36.08,27.49-63.56,70.48-63.56c30.57,0,52.58,10.65,68.38,38.47l-37.45,24.06c-8.24-14.77-17.18-20.61-30.92-20.61
		c-14.11,0-23.04,8.94-23.04,20.61c0,14.44,8.93,20.28,29.57,29.21c43.24,18.52,75.95,33.1,75.95,80.76
		C472.14,448.15,438.12,471.86,392.4,471.86z M281.6,399.34c0,49.84-30.69,76.19-73.32,76.19c-38.5,0-61.57-14.73-72.91-40.32h-0.38
		h-0.18h-0.1l39.14-27.36c7.55,13.39,14.36,22.89,30.85,22.89c15.82,0,25.7-8.01,25.7-32.05V230.4h51.2V399.34z M0,512h512V0H0V512z
		"/>
</g>
</svg>
