<?xml version="1.0" encoding="utf-8"?>
<!-- Generator: Adobe Illustrator 24.1.1, SVG Export Plug-In . SVG Version: 6.00 Build 0)  -->
<svg version="1.1" id="Layer_1" xmlns="http://www.w3.org/2000/svg" xmlns:xlink="http://www.w3.org/1999/xlink" x="0px" y="0px"
	 viewBox="0 0 512 512" style="enable-background:new 0 0 512 512;" xml:space="preserve">
<g>
	<path d="M256,210.3c-25.2,0-45.7,20.5-45.7,45.7c0,25.2,20.5,45.7,45.7,45.7s45.7-20.5,45.7-45.7
		C301.7,230.8,281.2,210.3,256,210.3z M128.2,346.8l-10.1-2.5C43.1,325.3,0,293.1,0,255.9c0-37.2,43.1-69.3,118.1-88.3l10.1-2.5
		l2.8,10c7.6,26.2,17.3,51.7,29.1,76.3l2.2,4.5l-2.2,4.6c-11.7,24.6-21.5,50.1-29.1,76.3L128.2,346.8z M113.4,190.9
		c-57,16-92,40.6-92,65c0,24.4,35,48.9,92,65c7-22.3,15.4-43.9,25.3-65C128.8,234.8,120.4,213.2,113.4,190.9z M383.8,346.8l-2.8-10
		c-7.6-26.2-17.3-51.7-29.1-76.3l-2.2-4.6l2.2-4.6c11.7-24.6,21.5-50.1,29.1-76.3l2.8-9.9l10.1,2.5c75,19,118.1,51.2,118.1,88.3
		c0,37.2-43.1,69.3-118.1,88.3L383.8,346.8z M373.3,255.9c10.3,22.2,18.8,43.9,25.3,65c57.1-16.1,92-40.6,92-65
		c0-24.4-35-48.9-92-65C391.6,213.1,383.1,234.8,373.3,255.9z M113.3,190.8l-2.8-10C89.3,106.5,95.7,53.2,128,34.6
		c31.7-18.3,82.4,3.3,135.7,58l7.3,7.4l-7.3,7.4c-18.9,19.7-36.2,40.8-51.7,63.3l-2.9,4.1l-5,0.4c-27.3,2.2-54.3,6.5-80.8,13
		L113.3,190.8z M153.7,49.4c-5.7,0-10.8,1.2-15.1,3.7c-21.2,12.3-24.9,54.8-10.3,112.1c22.8-5.1,45.7-8.7,69-10.8
		c13.3-19,28-37.2,43.7-54.3C207.8,67.8,176.3,49.4,153.7,49.4L153.7,49.4z M358.3,483.8L358.3,483.8c-30.4,0-69.5-22.8-110-64.5
		l-7.3-7.4l7.3-7.4c18.9-19.7,36.2-40.8,51.7-63.3l2.8-4.1l5-0.5c27.2-2.1,54.3-6.4,80.8-13l10.1-2.5l2.8,10
		c21.1,74.3,14.7,127.6-17.6,146.2C376.2,481.7,367.3,483.9,358.3,483.8L358.3,483.8z M270.9,411.7c33.2,32.4,64.8,50.8,87.3,50.8
		h0.1c5.7,0,10.8-1.3,15-3.7c21.2-12.3,25-54.8,10.3-112.1c-22.8,5.1-45.8,8.7-69,10.7C301.3,376.4,286.7,394.5,270.9,411.7
		L270.9,411.7z M398.8,190.8l-10.1-2.6c-26.6-6.5-53.6-10.8-80.8-13l-5-0.4l-2.8-4.1c-15.5-22.5-32.8-43.7-51.7-63.3l-7.3-7.4
		l7.3-7.4c53.3-54.7,104-76.3,135.7-58c32.3,18.6,38.7,71.9,17.6,146.3L398.8,190.8z M314.7,154.4c24.3,2.3,47.5,5.8,69,10.8
		c14.7-57.3,10.8-99.8-10.3-112.1c-21.1-12.2-60.8,6.5-102.4,47.1C286.7,117.4,301.3,135.4,314.7,154.4L314.7,154.4z M153.7,483.8
		c-9,0.2-17.9-2.1-25.7-6.6c-32.3-18.6-38.7-71.8-17.6-146.2l2.8-10l10.1,2.5c24.7,6.3,51.8,10.6,80.8,13l5,0.5l2.8,4.1
		c15.5,22.5,32.8,43.7,51.7,63.3l7.2,7.4l-7.2,7.4C223.2,460.9,184.1,483.8,153.7,483.8L153.7,483.8z M128.3,346.7
		c-14.7,57.3-10.8,99.8,10.3,112.1c21.1,12,60.7-6.5,102.4-47.1c-15.7-17.2-30.4-35.3-43.7-54.3
		C174.1,355.3,151.1,351.8,128.3,346.7L128.3,346.7z M256,360.1c-17.6,0-35.6-0.8-53.7-2.3l-5-0.4l-2.9-4.2
		c-10.2-14.7-19.8-29.7-28.8-45.2c-9-15.5-17.3-31.3-24.9-47.5l-2.2-4.6l2.2-4.6c7.7-16.2,15.9-32,24.9-47.5
		c8.8-15.3,18.5-30.5,28.8-45.3l2.9-4.2l5-0.4c35.7-3,71.7-3,107.3,0l5,0.4l2.9,4.2c20.4,29.3,38.4,60.4,53.7,92.8l2.2,4.6l-2.2,4.6
		c-15.3,32.3-33.2,63.4-53.7,92.8l-2.9,4.2l-5,0.4C291.7,359.3,273.6,360.1,256,360.1z M209.2,336.9c31.5,2.4,62.2,2.4,93.7,0
		c17.6-25.7,33.2-52.8,46.8-81c-13.5-28.2-29.2-55.2-46.9-81c-31.2-2.4-62.5-2.4-93.7,0c-17.8,25.8-33.4,52.8-46.9,81
		C175.8,284.1,191.5,311.2,209.2,336.9z"/>
</g>
</svg>
