<?xml version="1.0" encoding="utf-8"?>
<!-- Generator: Adobe Illustrator 24.1.1, SVG Export Plug-In . SVG Version: 6.00 Build 0)  -->
<svg version="1.1" id="Layer_1" xmlns="http://www.w3.org/2000/svg" xmlns:xlink="http://www.w3.org/1999/xlink" x="0px" y="0px"
	 viewBox="0 0 512 512" style="enable-background:new 0 0 512 512;" xml:space="preserve">
<g>
	<path d="M354.8,352.1c18.6-1.6,32.9-17.9,32-37.4c-1-19.5-17-35.2-36.4-35.2h-1.3c-20.1,0.6-35.8,17.6-35.2,37.7
		c0.7,10.3,4.8,18.5,10.6,24.6c-22.4,43.5-55.9,75.5-106.8,102.3c-34.2,17.8-70.3,24.6-105.4,19.8c-29.4-4.1-52.4-17.2-66.5-38.3
		c-21.1-32-23-66.4-5.4-101c12.8-24.9,32-43.2,44.7-52.1c-3.1-8.3-7-22.3-8.9-32.9c-94.7,67.8-85,160.5-56.2,204.3
		c21.4,32,65.2,52.4,113.1,52.4c12.9,0,26.3-0.9,39.3-4.2c83.2-16,146.1-65.8,182.2-139.3L354.8,352.1z M468.9,272.2
		C419.4,214,346.5,182,263.4,182h-10.9c-5.3-11.8-17.8-19.2-31.9-19.2h-0.9c-20.2,0-35.8,17.3-35.2,37.4
		c0.7,19.2,16.9,35.2,36.4,35.2h1.6c14.4-0.7,26.8-9.6,32-22.4h11.8c49.3,0,95.9,14.4,138.4,42.5c32.5,21.4,55.9,49.6,69,83.2
		c11.5,27.4,10.8,54.3-1,76.8c-18.2,35.1-48.9,53.7-89.4,53.7c-25.6,0-50.5-8-63.4-13.7c-7.7,6.3-20.5,16.9-29.8,23.3
		c28.2,12.7,56.6,20.1,84.1,20.1c62.3,0,108.7-35.1,126.3-69c19.2-38.3,17.6-102.9-31.3-158.3L468.9,272.2z M138.4,363.6
		c0.7,19.2,16.9,35.2,36.5,35.2h1.3c20.5-0.7,36.1-17.6,35.2-37.7c0-19.2-16.6-35.2-36.1-35.2h-1.3c-1.2,0-3.2,0-4.8,0.7
		c-26.5-44.8-37.7-92.8-33.5-144.5c2.5-39,15.3-72.8,38.3-101c19.2-23.9,55.3-35.8,79.9-36.4c69-1.3,97.8,84.7,100,118.9l32,9.6
		C378.4,68.2,313.3,13.2,250.9,13.2c-58.5,0-112.5,42.5-134.3,104.8c-29.7,83.2-10.2,163,26.2,227
		C139.7,349.2,137.8,356.6,138.4,363.6z"/>
</g>
</svg>
